<svg width="512" height="512" viewBox="0 0 512 512" fill="none" xmlns="http://www.w3.org/2000/svg">
<path d="M298.803 127.24C319.073 108.87 404.758 128.309 435.209 161.908C465.66 195.508 440.877 243.268 420.607 261.638C400.496 279.865 385.215 268.414 354.764 234.815C324.313 201.215 278.692 145.467 298.803 127.24Z" fill="#FA4D56" fill-opacity="0.2"/>
<path d="M388.219 396.556C354.038 423.53 280.392 415.886 224.608 395.652C168.515 375.676 130.284 343.11 99.7482 301.043C68.9046 258.976 45.7567 207.15 60.8154 155.296C76.1821 103.185 129.447 51.045 173.207 60.2514C216.967 69.4577 251.221 140.01 289.151 181.559C327.081 222.851 368.686 234.625 392.438 271.308C416.191 308.247 422.092 369.582 388.219 396.556Z" fill="#FA4D56" fill-opacity="0.2"/>
<path d="M398.787 230.42C416.839 242.268 416.839 268.732 398.787 280.58L253.211 376.127C233.261 389.221 206.75 374.91 206.75 351.047L206.75 159.953C206.75 136.09 233.261 121.779 253.211 134.873L398.787 230.42Z" fill="#F87171"/>
<path d="M354.179 237.181C370.146 244.175 370.146 266.825 354.179 273.819L166.025 356.24C152.81 362.029 138 352.348 138 337.921L138 173.079C138 158.652 152.81 148.971 166.025 154.76L354.179 237.181Z" fill="#DC2626" stroke="white" stroke-width="10"/>
<circle cx="268.5" cy="124.5" r="7.5" fill="#DC2626"/>
<circle cx="265.5" cy="79.5" r="4.5" fill="#DC2626" fill-opacity="0.71"/>
<circle cx="428" cy="298" r="6" fill="#DC2626"/>
<circle cx="90" cy="325" r="5" fill="#DC2626" fill-opacity="0.32"/>
<circle cx="456" cy="74" r="8" fill="#DC2626" fill-opacity="0.5"/>
<circle cx="55" cy="74" r="6" fill="#DC2626"/>
<circle cx="138.5" cy="407.5" r="8.5" fill="#DC2626" fill-opacity="0.25"/>
<circle cx="261" cy="435" r="5" fill="#DC2626" fill-opacity="0.25"/>
<circle cx="362" cy="93" r="10" fill="#DC2626" fill-opacity="0.25"/>
</svg>
