<?xml version="1.0" standalone="no"?>
<!DOCTYPE svg PUBLIC "-//W3C//DTD SVG 20010904//EN"
 "http://www.w3.org/TR/2001/REC-SVG-20010904/DTD/svg10.dtd">
<svg version="1.0" xmlns="http://www.w3.org/2000/svg"
 width="512.000000pt" height="512.000000pt" viewBox="0 0 512.000000 512.000000"
 preserveAspectRatio="xMidYMid meet">
<metadata>
Created by potrace 1.14, written by Peter Selinger 2001-2017
</metadata>
<g transform="translate(0.000000,512.000000) scale(0.100000,-0.100000)"
fill="#000000" stroke="none">
<path d="M1810 4462 c-54 -21 -140 -102 -166 -157 -16 -34 -19 -69 -22 -250
-2 -115 -5 -212 -7 -214 -2 -2 -142 66 -312 150 l-308 153 -75 0 c-65 1 -82
-3 -122 -27 -53 -31 -94 -79 -114 -134 -11 -31 -13 -291 -14 -1418 0 -921 4
-1392 10 -1417 16 -58 69 -119 130 -151 49 -26 62 -28 120 -24 59 4 92 18 371
156 169 83 309 151 312 151 3 0 7 -96 9 -213 3 -198 5 -215 27 -260 58 -118
209 -191 337 -163 48 10 97 39 221 132 73 55 203 151 289 214 132 98 258 191
579 428 28 20 55 41 60 45 9 7 96 71 140 102 51 37 212 157 225 168 8 7 56 41
105 77 50 36 97 70 105 77 18 15 239 178 450 333 85 62 165 125 178 139 76 85
97 221 49 323 -34 75 -44 83 -302 273 -65 47 -150 110 -240 178 -5 4 -36 26
-68 50 -31 23 -94 69 -140 103 -45 34 -145 108 -222 164 -77 57 -216 160 -310
230 -178 132 -330 243 -471 346 -46 34 -99 73 -117 87 -17 14 -70 54 -117 88
-47 34 -134 99 -195 145 -153 114 -183 128 -275 131 -52 2 -89 -3 -120 -15z"/>
</g>
</svg>
